<svg xmlns="http://www.w3.org/2000/svg" viewBox="0 0 196 219"><title>Personal</title><path d="M169.05 182.13a5 5 0 0 0-5-5h-33.57a5 5 0 0 0-5 5v15.59a5 5 0 0 0 5 5h33.57a5 5 0 0 0 5-5zm26.62-3.84v35.29a5 5 0 0 1-5 5h-184.76a5 5 0 0 1-5-5v-35.29a35 35 0 0 1 22.09-32.64l43.71-17.49a5 5 0 0 1 6.56 2.94l11 30.38 2.18-6.26-3.45-8.45a5 5 0 0 1 4.63-6.89h21.37a5 5 0 0 1 4.63 6.89l-3.46 8.46 2.18 6.26 11-30.38a5 5 0 0 1 6.56-2.94l43.71 17.49a35 35 0 0 1 22.05 32.63zm-44.49-96.89c-3.4 13-11.34 15.88-15.58 16.45-2.61 5.22-8.35 15.88-14.09 21.24a28 28 0 0 1-8.86 5.37 39.07 39.07 0 0 1-28.73 0 28 28 0 0 1-8.86-5.37c-5.74-5.36-11.48-16-14.09-21.24-4.23-.57-12.17-3.44-15.57-16.45-1.82-7-1.35-12.63 1.39-16.86a13.16 13.16 0 0 1 4-4c0-1.39.06-3.13.22-5.11-2.46-3.42-5.81-10.8-1.66-22.74 4.38-12.63 14.28-14.58 19.06-14.75a33.05 33.05 0 0 1 10.26-11.19 39.38 39.38 0 0 1 22.62-6.75c10.38 0 20.83 3.65 30.21 10.57 15.21 11.2 13.91 36.07 13.5 40.58a67.36 67.36 0 0 1 .71 9.39 13.16 13.16 0 0 1 4 4c2.83 4.23 3.29 9.9 1.47 16.86z" clip-rule="evenodd"/></svg>