<?xml version="1.0" standalone="no"?>
<!DOCTYPE svg PUBLIC "-//W3C//DTD SVG 20010904//EN"
 "http://www.w3.org/TR/2001/REC-SVG-20010904/DTD/svg10.dtd">
<svg version="1.0" xmlns="http://www.w3.org/2000/svg"
 width="500.000000pt" height="500.000000pt" viewBox="0 0 500.000000 500.000000"
 preserveAspectRatio="xMidYMid meet">
<metadata>
Created by potrace 1.14, written by Peter Selinger 2001-2017
</metadata>
<g transform="translate(0.000000,500.000000) scale(0.100000,-0.100000)"
fill="#000000" stroke="none">
<path d="M1938 4727 c-257 -150 -466 -276 -465 -282 1 -5 436 -261 967 -568
531 -307 981 -570 1000 -585 55 -42 117 -110 159 -176 100 -157 379 -650 408
-720 51 -128 55 -170 51 -653 l-3 -440 -32 -62 -32 -62 32 19 c32 20 308 180
744 433 l233 134 0 1618 0 1617 -1297 0 -1298 -1 -467 -272z"/>
<path d="M1938 3035 c-1 -327 -2 -611 -2 -632 l-1 -36 525 -304 c803 -466 852
-493 874 -493 26 0 222 114 229 133 3 8 9 165 12 348 7 298 6 338 -9 373 -30
71 -200 361 -231 393 -23 24 -1372 813 -1390 813 -3 0 -6 -268 -7 -595z"/>
<path d="M1930 971 c0 -474 2 -861 5 -861 6 0 1467 850 1478 859 6 6 -1420
839 -1468 857 -13 6 -15 -85 -15 -855z"/>
</g>
</svg>
