<svg version="1.0" xmlns="http://www.w3.org/2000/svg" width="666.667" height="666.667" viewBox="0 0 500 500"><path d="M193.8 27.3c-25.7 15-46.6 27.6-46.5 28.2.1.5 43.6 26.1 96.7 56.8 53.1 30.7 98.1 57 100 58.5 5.5 4.2 11.7 11 15.9 17.6 10 15.7 37.9 65 40.8 72 5.1 12.8 5.5 17 5.1 65.3l-.3 44-3.2 6.2-3.2 6.2 3.2-1.9c3.2-2 30.8-18 74.4-43.3l23.3-13.4V0H370.3L240.5.1l-46.7 27.2z"/><path d="M193.8 196.5c-.1 32.7-.2 61.1-.2 63.2l-.1 3.6 52.5 30.4c80.3 46.6 85.2 49.3 87.4 49.3 2.6 0 22.2-11.4 22.9-13.3.3-.8.9-16.5 1.2-34.8.7-29.8.6-33.8-.9-37.3-3-7.1-20-36.1-23.1-39.3-2.3-2.4-137.2-81.3-139-81.3-.3 0-.6 26.8-.7 59.5zM193 402.9c0 47.4.2 86.1.5 86.1.6 0 146.7-85 147.8-85.9.6-.6-142-83.9-146.8-85.7-1.3-.6-1.5 8.5-1.5 85.5z"/></svg>