<svg xmlns="http://www.w3.org/2000/svg" viewBox="0 0 33 35" enable-background="new 0 0 33 35"><path d="M.1 12c-.4 3.5.7 7 3 9.7 3.1 3.6 8.1 5.4 13 4.6 1.9-.3 3.6-1 5.2-1.9l9.1 10.6 2.6-2-9.1-10.6c2.2-2.1 3.5-4.9 3.9-7.9.4-3.5-.7-7-3-9.7-3.1-3.6-8.1-5.4-13-4.6-2.4.4-4.7 1.4-6.6 2.8-2.9 2.3-4.7 5.5-5.1 9zm12.2-8.7c3.7-.6 7.5.7 9.9 3.5 1.8 2.1 2.6 4.7 2.3 7.4-.3 2.7-1.7 5.1-3.9 6.8-1.4 1.1-3.2 1.9-5 2.2-3.7.6-7.5-.7-9.9-3.5-1.8-2.1-2.6-4.7-2.3-7.4.3-2.7 1.7-5.1 3.9-6.8 1.4-1.1 3.2-1.9 5-2.2z"/></svg>